<?xml version="1.0" encoding="utf-8"?>
<!-- Generator: Adobe Illustrator 23.1.0, SVG Export Plug-In . SVG Version: 6.00 Build 0)  -->
<svg version="1.1" id="Layer_1" xmlns="http://www.w3.org/2000/svg" xmlns:xlink="http://www.w3.org/1999/xlink" x="0px" y="0px"
	 viewBox="0 0 154.7 165.27" style="enable-background:new 0 0 154.7 165.27;" xml:space="preserve">
<style type="text/css">
	.st0{fill:url(#SVGID_1_);}
	.st1{fill:url(#SVGID_2_);}
	.st2{fill:url(#SVGID_3_);}
	.st3{fill:#39B54A;stroke:#FFFFFF;stroke-width:0.8;stroke-miterlimit:10;}
</style>
<g>
	<radialGradient id="SVGID_1_" cx="79.8533" cy="83.0216" r="7.6148" gradientUnits="userSpaceOnUse">
		<stop  offset="0" style="stop-color:#FFFFFF"/>
		<stop  offset="1" style="stop-color:#FFFFFF"/>
	</radialGradient>
	<line class="st0" x1="78.43" y1="72.35" x2="81.28" y2="93.7"/>
	<radialGradient id="SVGID_2_" cx="79.8533" cy="83.0216" r="0" gradientUnits="userSpaceOnUse">
		<stop  offset="0" style="stop-color:#FFFFFF"/>
		<stop  offset="1" style="stop-color:#FFFFFF"/>
	</radialGradient>
	<path class="st1" d="M79.85,83.02"/>
	<radialGradient id="SVGID_3_" cx="91.6273" cy="60.8585" r="75.6069" gradientUnits="userSpaceOnUse">
		<stop  offset="9.073437e-03" style="stop-color:#CCE0F4"/>
		<stop  offset="0.1598" style="stop-color:#BCE0E4"/>
		<stop  offset="0.4552" style="stop-color:#92DFBA"/>
		<stop  offset="0.8627" style="stop-color:#4EDD78"/>
		<stop  offset="1" style="stop-color:#36DD60"/>
	</radialGradient>
	<circle class="st2" cx="77.45" cy="81.94" r="76.5"/>
	<path class="st3" d="M27.85,114.84c2.22-2.33,4.47-4.68,6.71-7.04c1.27-1.34,2.47-2.76,3.82-4.02c2.16-2.01,4.6-3.57,7.59-4.05
		c2.39-0.38,4.75-0.12,6.97,0.8c2.74,1.13,5.41,2.41,8.1,3.64c2.63,1.2,5.29,2.27,8.17,2.72c0.75,0.12,1.51,0.16,2.27,0.25
		c0.65,0.08,0.87-0.17,0.78-0.84c-0.38-2.66-0.78-5.32-1.09-7.99c-0.34-2.97-0.68-5.94-0.84-8.92c-0.29-5.43-0.59-10.86-0.61-16.29
		c-0.02-4.4,0.27-8.8,0.6-13.19c0.46-6.13,1.05-12.24,0.78-18.39c-0.04-0.93,0.31-1.23,1.15-1.35c3.9-0.53,7.78-1.2,11.69-1.61
		c3.91-0.41,7.85-0.7,11.78-0.82c5.38-0.16,10.77-0.22,16.15-0.11c2.62,0.05,5.22,0.59,7.83,0.93c0.37,0.05,0.76,0.16,1.08,0.35
		c0.38,0.22,0.98,0.57,0.96,0.84c-0.02,0.38-0.43,0.87-0.81,1.09c-0.94,0.53-1.96,0.93-2.95,1.38c-0.26,0.12-0.52,0.23-0.9,0.4
		c1.26,1.03,2.47,1.91,3.55,2.92c1.87,1.74,3.65,3.58,5.48,5.36c0.98,0.96,1.04,2.17,0.9,3.4c-0.03,0.23-0.38,0.59-0.61,0.61
		c-1.16,0.09-2.36,0.29-3.48,0.07c-3.76-0.72-7.48-1.62-11.22-2.41c-4.17-0.88-8.37-1.64-12.65-1.73c-2.91-0.06-5.81,0.02-8.72,0.01
		c-0.74,0-0.96,0.34-1.04,1.03c-0.27,2.59-0.62,5.17-0.9,7.76c-0.21,1.94-0.35,3.89-0.53,5.84c-0.04,0.42,0.07,0.65,0.56,0.68
		c2.71,0.2,5.41,0.42,8.12,0.64c3.09,0.25,6.17,0.52,9.26,0.76c2.41,0.19,4.82,0.36,7.23,0.54c1.3,0.1,2.6,0.22,4.1,0.35
		c-0.36,0.22-0.59,0.37-0.82,0.5c-2.64,1.52-5.27,3.06-7.92,4.56c-0.55,0.31-0.81,0.57-0.49,1.25c0.37,0.78,0.12,1.52-0.75,1.88
		c-1.04,0.44-2.16,0.87-3.26,0.91c-2.71,0.1-5.43,0.07-8.14-0.09c-2.46-0.15-4.91-0.54-7.36-0.82c-0.26-0.03-0.53,0-0.84,0
		c0,1.2-0.08,2.34,0.01,3.47c0.39,4.76,0.68,9.54,1.31,14.27c0.63,4.73,1.63,9.41,2.44,14.11c0.65,3.77,1.27,7.54,1.88,11.32
		c0.07,0.46,0.01,0.94,0.01,1.41c-0.12,0.03-0.24,0.06-0.36,0.1c-0.55-1.11-1.11-2.22-1.7-3.41c-0.48,0.28-0.93,0.52-1.37,0.78
		c-5.86,3.48-12.15,5.83-18.88,6.9c-9.68,1.54-19.12,0.61-28.19-3.25c-2.69-1.14-5.2-2.61-7.51-4.4c-1.87-1.45-3.86-2.65-6.25-2.99
		C28.54,114.9,28.13,114.87,27.85,114.84z"/>
</g>
</svg>
